<svg width="44" height="44" viewBox="0 0 44 44" fill="none" xmlns="http://www.w3.org/2000/svg">
<path d="M22.8125 30.375H19.3125C19.071 30.375 18.875 30.179 18.875 29.9375C18.875 29.696 19.071 29.5 19.3125 29.5H22.8125C23.5361 29.5 24.125 28.9111 24.125 28.1875V23.8125C24.125 23.571 24.321 23.375 24.5625 23.375C24.804 23.375 25 23.571 25 23.8125V28.1875C25 29.3933 24.0191 30.375 22.8125 30.375Z" fill="black"/>
<path d="M31.5625 21.625H22.8125C22.571 21.625 22.375 21.429 22.375 21.1875C22.375 20.946 22.571 20.75 22.8125 20.75H31.5625C31.804 20.75 32 20.946 32 21.1875C32 21.429 31.804 21.625 31.5625 21.625Z" fill="black"/>
<path d="M18 33C17.8075 33 17.6194 32.9676 17.4417 32.9046L12.2005 31.1572C11.483 30.9184 11 30.2516 11 29.5V13.75C11 12.7849 11.7849 12 12.75 12C12.9443 12 13.1332 12.0324 13.3091 12.0962L18.5495 13.8427C19.267 14.0807 19.75 14.7475 19.75 15.5V31.25C19.75 32.2151 18.9651 33 18 33ZM12.75 12.875C12.267 12.875 11.875 13.2679 11.875 13.75V29.5C11.875 29.8745 12.1165 30.207 12.477 30.3277L17.727 32.0777C18.301 32.2816 18.875 31.8222 18.875 31.25V15.5C18.875 15.1246 18.6335 14.7921 18.273 14.6731L13.023 12.9231C12.9329 12.8907 12.841 12.875 12.75 12.875V12.875Z" fill="black"/>
<path d="M24.5625 19C24.321 19 24.125 18.804 24.125 18.5625V14.1875C24.125 13.4639 23.5361 12.875 22.8125 12.875H12.75C12.5085 12.875 12.3125 12.679 12.3125 12.4375C12.3125 12.196 12.5085 12 12.75 12H22.8125C24.0191 12 25 12.9817 25 14.1875V18.5625C25 18.804 24.804 19 24.5625 19Z" fill="black"/>
<path d="M28.0625 25.125C27.9505 25.125 27.8385 25.0821 27.7528 24.9972C27.5821 24.8266 27.5821 24.5492 27.7528 24.3786L30.943 21.1884L27.7528 17.9981C27.5821 17.8275 27.5821 17.5501 27.7528 17.3795C27.9234 17.2089 28.2008 17.2089 28.3714 17.3795L31.8714 20.8795C32.042 21.0501 32.042 21.3275 31.8714 21.4981L28.3714 24.9981C28.2865 25.0821 28.1745 25.125 28.0625 25.125V25.125Z" fill="black"/>
</svg>
