<svg width="31" height="31" viewBox="0 0 31 31" fill="none" xmlns="http://www.w3.org/2000/svg">
<path d="M2.90625 4.84375H3.875V3.875H6.78125V2.90625H2.90625V4.84375Z" fill="white"/>
<path d="M27.125 3.875V4.84375H28.0938V2.90625H24.2188V3.875H27.125Z" fill="white"/>
<path d="M0.96875 0.96875V11.625H8.71875V20.3438H10.9256C10.7795 20.5889 10.6902 20.8636 10.6642 21.1477C10.6381 21.4318 10.676 21.7182 10.775 21.9858C10.874 22.2534 11.0317 22.4954 11.2365 22.6941C11.4412 22.8929 11.6878 23.0432 11.9583 23.1342C11.7615 23.4256 11.6476 23.765 11.629 24.1161C11.6104 24.4671 11.6876 24.8167 11.8525 25.1272C12.0173 25.4377 12.2636 25.6976 12.5648 25.8788C12.866 26.0601 13.2109 26.156 13.5625 26.1562H15.2995L16.4688 27.3255V29.5469C16.4688 29.6753 16.5198 29.7985 16.6106 29.8894C16.7015 29.9802 16.8247 30.0312 16.9531 30.0312H23.7344C23.8628 30.0312 23.986 29.9802 24.0769 29.8894C24.1677 29.7985 24.2188 29.6753 24.2188 29.5469V27.218L27.0906 20.0396C27.1274 19.9475 27.1351 19.8463 27.1126 19.7497C27.0901 19.6531 27.0384 19.5658 26.9647 19.4995L22.2812 15.2845V11.625H30.0312V0.96875H0.96875ZM21.7969 1.9375V3.875H9.20312V1.9375H21.7969ZM9.6875 16.9933C10.2822 17.095 10.8306 17.3787 11.2572 17.8053C11.6838 18.2319 11.9675 18.7803 12.0692 19.375H9.6875V16.9933ZM11.625 21.3125C11.625 21.0556 11.7271 20.8092 11.9087 20.6275C12.0904 20.4458 12.3368 20.3438 12.5938 20.3438H16.5307L15.3092 20.8674C15.222 20.9047 15.1478 20.9668 15.0956 21.0459C15.0435 21.125 15.0156 21.2177 15.0156 21.3125V22.2812H12.5938C12.3368 22.2812 12.0904 22.1792 11.9087 21.9975C11.7271 21.8158 11.625 21.5694 11.625 21.3125ZM12.5938 24.2188C12.5938 23.9618 12.6958 23.7154 12.8775 23.5337C13.0592 23.3521 13.3056 23.25 13.5625 23.25H15.0156V25.1875H13.5625C13.3056 25.1875 13.0592 25.0854 12.8775 24.9038C12.6958 24.7221 12.5938 24.4757 12.5938 24.2188ZM26.0652 19.9931L23.2844 26.9448C23.2617 27.0022 23.25 27.0633 23.25 27.125V29.0625H17.4375V27.125C17.4375 26.9965 17.3864 26.8734 17.2956 26.7825L15.9844 25.4713V21.6317L19.0815 20.3045C19.1686 20.2672 19.2428 20.2051 19.295 20.126C19.3472 20.0468 19.375 19.9542 19.375 19.8594V14.5312C19.375 14.2743 19.4771 14.0279 19.6587 13.8462C19.8404 13.6646 20.0868 13.5625 20.3438 13.5625C20.6007 13.5625 20.8471 13.6646 21.0288 13.8462C21.2104 14.0279 21.3125 14.2743 21.3125 14.5312V19.8594H22.2812V16.5874L26.0652 19.9931ZM21.3125 12.8631C21.0193 12.6887 20.6849 12.5958 20.3438 12.5938C19.8299 12.5938 19.3371 12.7979 18.9737 13.1612C18.6104 13.5246 18.4062 14.0174 18.4062 14.5312V19.375H13.0447C12.936 18.5226 12.5474 17.7304 11.9397 17.1228C11.3321 16.5151 10.5399 16.1265 9.6875 16.0178V6.78125H21.3125V12.8631ZM8.71875 8.71875H3.875V6.78125H8.71875V8.71875ZM29.0625 1.9375V10.6562H22.2812V9.6875H28.0938V5.8125H2.90625V9.6875H8.71875V10.6562H1.9375V1.9375H8.23438V4.84375H22.7656V1.9375H29.0625ZM22.2812 8.71875V6.78125H27.125V8.71875H22.2812Z" fill="white"/>
<path d="M17.9219 8.23438C17.9219 8.10591 17.8708 7.98271 17.78 7.89187C17.6892 7.80103 17.566 7.75 17.4375 7.75H15.5C15.3715 7.75 15.2483 7.80103 15.1575 7.89187C15.0667 7.98271 15.0156 8.10591 15.0156 8.23438V10.6562H14.0469V7.75H13.0781V9.20312H12.1094V10.1719H13.0781V11.1406C13.0781 11.2691 13.1292 11.3923 13.22 11.4831C13.3108 11.574 13.434 11.625 13.5625 11.625H15.5C15.6285 11.625 15.7517 11.574 15.8425 11.4831C15.9333 11.3923 15.9844 11.2691 15.9844 11.1406V8.71875H16.9531V11.625H17.9219V10.1719H18.8906V9.20312H17.9219V8.23438Z" fill="white"/>
<path d="M5.81255 12.5938V19.6588L5.18625 19.0325L4.50134 19.7175L5.95447 21.1706C6.0453 21.2614 6.16848 21.3124 6.29692 21.3124C6.42536 21.3124 6.54854 21.2614 6.63937 21.1706L8.0925 19.7175L7.40759 19.0325L6.7813 19.6588V12.5938H5.81255Z" fill="white"/>
</svg>
